<?xml version="1.0" encoding="UTF-8"?>
<svg id="Layer_1" xmlns="http://www.w3.org/2000/svg" xmlns:xlink="http://www.w3.org/1999/xlink" version="1.1" viewBox="0 0 85 85">
  <!-- Generator: Adobe Illustrator 29.1.0, SVG Export Plug-In . SVG Version: 2.1.0 Build 142)  -->
  <defs>
    <style>
      .st0 {
        fill: url(#linear-gradient2);
      }

      .st1 {
        fill: url(#linear-gradient1);
      }

      .st2 {
        fill: url(#linear-gradient3);
      }

      .st3 {
        fill: url(#linear-gradient5);
      }

      .st4 {
        fill: url(#linear-gradient4);
      }

      .st5 {
        fill: url(#linear-gradient);
      }
    </style>
    <linearGradient id="linear-gradient" x1="32.2" y1="40.1" x2="52.2" y2="40.1" gradientUnits="userSpaceOnUse">
      <stop offset="0" stop-color="#e4b8bf"/>
      <stop offset="1" stop-color="#cec4ef"/>
    </linearGradient>
    <linearGradient id="linear-gradient1" x1="20" y1="31.7" x2="25.5" y2="31.7" xlink:href="#linear-gradient"/>
    <linearGradient id="linear-gradient2" x1="31.5" y1="18.8" x2="37.1" y2="18.8" xlink:href="#linear-gradient"/>
    <linearGradient id="linear-gradient3" x1="8.9" y1="42.8" x2="75.5" y2="42.8" xlink:href="#linear-gradient"/>
    <linearGradient id="linear-gradient4" x1="47.3" y1="18.8" x2="52.8" y2="18.8" xlink:href="#linear-gradient"/>
    <linearGradient id="linear-gradient5" x1="58.8" y1="31.7" x2="64.4" y2="31.7" xlink:href="#linear-gradient"/>
  </defs>
  <path class="st5" d="M48.8,38.9c-.6-.2-1.1-.8-1.2-1.5-.4-3.2-2.7-5.7-5.5-5.7s-5.1,2.4-5.5,5.7c0,.7-.5,1.3-1.2,1.5-2,.8-3.4,2.6-3.4,4.5s2.5,4.9,5.6,4.9,2.4-.4,3.4-1.1c.6-.4,1.5-.4,2.1,0,1,.7,2.2,1.1,3.4,1.1,3.1,0,5.6-2.2,5.6-4.9s-1.3-3.7-3.4-4.5Z"/>
  <path class="st1" d="M22.8,28c-1.5,0-2.8,1.7-2.8,3.7s1.3,3.7,2.8,3.7,2.8-1.7,2.8-3.7-1.3-3.7-2.8-3.7Z"/>
  <path class="st0" d="M34.3,22.5c1.5,0,2.8-1.7,2.8-3.7s-1.3-3.7-2.8-3.7-2.8,1.7-2.8,3.7,1.3,3.7,2.8,3.7Z"/>
  <path class="st2" d="M75.5,31.7c0-7.4-5-13.5-11.6-14.6-.8-7.4-6.7-13.1-13.8-13.1s-5.6.9-7.9,2.6c-2.3-1.7-5-2.6-7.9-2.6-7.1,0-13,5.8-13.8,13.1-6.7,1.1-11.6,7.2-11.6,14.6s3.5,11.6,8.8,13.8c1.9.8,3.2,2.8,3.2,5v29.3c0,1,.8,1.8,1.8,1.8h38.8c1,0,1.8-.8,1.8-1.8v-29.3c0-2.2,1.3-4.2,3.2-5,5.3-2.2,8.8-7.7,8.8-13.8ZM50,11.4c3.6,0,6.5,3.3,6.5,7.4s-2.9,7.4-6.5,7.4-6.5-3.3-6.5-7.4,2.9-7.4,6.5-7.4ZM34.3,11.4c3.6,0,6.5,3.3,6.5,7.4s-2.9,7.4-6.5,7.4-6.5-3.3-6.5-7.4,2.9-7.4,6.5-7.4ZM22.8,39.1c-3.6,0-6.5-3.3-6.5-7.4s2.9-7.4,6.5-7.4,6.5,3.3,6.5,7.4-2.9,7.4-6.5,7.4ZM46.6,52.1c-1.6,0-3.1-.4-4.4-1.1-1.4.7-2.9,1.1-4.4,1.1-5.1,0-9.3-3.9-9.3-8.6s1.8-6,4.7-7.5c1-4.6,4.7-7.9,9-7.9s8,3.3,9,7.9c2.9,1.5,4.7,4.4,4.7,7.5,0,4.8-4.2,8.6-9.3,8.6ZM61.6,39.1c-3.6,0-6.5-3.3-6.5-7.4s2.9-7.4,6.5-7.4,6.5,3.3,6.5,7.4-2.9,7.4-6.5,7.4Z"/>
  <path class="st4" d="M50,22.5c1.5,0,2.8-1.7,2.8-3.7s-1.3-3.7-2.8-3.7-2.8,1.7-2.8,3.7,1.3,3.7,2.8,3.7Z"/>
  <path class="st3" d="M61.6,28c-1.5,0-2.8,1.7-2.8,3.7s1.3,3.7,2.8,3.7,2.8-1.7,2.8-3.7-1.3-3.7-2.8-3.7Z"/>
</svg>